Coordinates
version=1
nRows=14
nColumns=24
inDegrees=yes

Units are S.I. units (second, meters, Newtons, ...)
Angles are in degrees.

endheader
time	pelvis_tilt	pelvis_list	pelvis_rotation	pelvis_tx	pelvis_ty	pelvis_tz	hip_flexion_r	hip_adduction_r	hip_rotation_r	knee_angle_r	ankle_angle_r	subtalar_angle_r	mtp_angle_r	hip_flexion_l	hip_adduction_l	hip_rotation_l	knee_angle_l	ankle_angle_l	subtalar_angle_l	mtp_angle_l	lumbar_extension	lumbar_bending	lumbar_rotation
      1.66066667	      0.74629097	      6.85522470	     -5.34681854	      1.38914145	      1.00686358	      0.28411899	     10.16513513	    -10.72091503	      0.18439611	    -67.46917421	     -5.37046343	    -11.71296821	      1.79706992	      8.40275310	     12.41200428	      8.68724581	    -15.91334406	      5.91781492	    -19.27376445	     -9.55349149	    -10.87268256	     -1.73618093	      0.38883401
      1.66483333	      0.77016255	      6.61379486	     -5.15709425	      1.39398297	      1.00796977	      0.28354644	     10.66701022	    -10.43581483	     -0.00637153	    -67.23994951	     -4.50864095	    -11.64331982	      1.24997706	      7.76846210	     12.21268983	      9.08477010	    -15.39199121	      5.80144155	    -19.48346650	     -9.48611234	    -10.92458567	     -1.33555467	     -0.11280216
      1.66900000	      0.83197388	      6.36720381	     -4.98017991	      1.39885895	      1.00907891	      0.28302122	     11.11787251	    -10.14821636	     -0.18414489	    -66.96455198	     -3.63589619	    -11.40904666	      1.11631720	      7.11612418	     11.98915152	      9.35762049	    -14.91513762	      5.85928325	    -19.37682082	     -9.46261792	    -11.02137865	     -0.99017647	     -0.40466869
      1.67316667	      0.85008826	      6.13203512	     -4.79350695	      1.40366412	      1.01008005	      0.28247058	     11.61863062	     -9.87408826	     -0.37335099	    -66.65492888	     -2.78717409	    -11.22729490	      0.95523107	      6.51160301	     11.77493594	      9.67477330	    -14.42309388	      5.84618245	    -19.38530369	     -9.43760553	    -11.06321718	     -0.61859272	     -0.81905127
      1.67733333	      0.88474171	      5.88468653	     -4.59777365	      1.40849985	      1.01106531	      0.28193159	     12.08005798	     -9.58397209	     -0.56652254	    -66.28986783	     -1.97688473	    -11.06808377	      0.80201333	      5.88841413	     11.54225174	      9.98584184	    -13.93550960	      5.84143810	    -19.39849103	     -9.41277482	    -11.12198771	     -0.24755950	     -1.18720662
      1.68150000	      0.93149810	      5.66154039	     -4.40091251	      1.41335107	      1.01204502	      0.28138782	     12.52185955	     -9.33003972	     -0.77345459	    -65.87860200	     -1.15521600	    -10.94452998	      0.56120312	      5.24727972	     11.33209883	     10.30289737	    -13.42416133	      5.76017134	    -19.45411897	     -9.38082893	    -11.19725336	      0.11252871	     -1.62636088
      1.68566667	      0.95547810	      5.42319290	     -4.20215767	      1.41815284	      1.01293503	      0.28085615	     12.98179351	     -9.05420418	     -0.97443946	    -65.42632066	     -0.41345693	    -10.79836195	      0.33012442	      4.63779098	     11.09595429	     10.60579202	    -12.92386297	      5.74114165	    -19.46395653	     -9.34700976	    -11.24401507	      0.47871555	     -2.00910498
      1.68983333	      0.96897599	      5.18788575	     -4.01432148	      1.42298946	      1.01376434	      0.28035782	     13.44338276	     -8.77701136	     -1.16069438	    -64.92833549	      0.32763090	    -10.62547493	      0.15899480	      4.04919494	     10.85522322	     10.87351284	    -12.44616186	      5.76502929	    -19.44203583	     -9.32043368	    -11.26415594	      0.82227045	     -2.31609260
      1.69400000	      1.01577388	      4.96287819	     -3.81696316	      1.42779900	      1.01459563	      0.27985017	     13.86382634	     -8.51945936	     -1.36234966	    -64.39380717	      1.02210295	    -10.50625766	     -0.02897159	      3.42103791	     10.62183537	     11.14981823	    -11.93973199	      5.73420369	    -19.43252175	     -9.28980634	    -11.33523627	      1.16456087	     -2.69116714
      1.69816667	      1.03930184	      4.75089628	     -3.62005231	      1.43257457	      1.01533120	      0.27936522	     14.30674718	     -8.26776238	     -1.54533116	    -63.82944733	      1.71326611	    -10.39326421	     -0.26498927	      2.83100658	     10.39673198	     11.43149458	    -11.45596447	      5.69121644	    -19.43828909	     -9.25076082	    -11.38864473	      1.49648584	     -3.07683928
      1.70233333	      1.06014211	      4.54831791	     -3.42762527	      1.43736602	      1.01601550	      0.27889783	     14.74393080	     -8.03053008	     -1.73104899	    -63.22381949	      2.37386688	    -10.27626612	     -0.47550839	      2.23803164	     10.17242624	     11.67265814	    -10.95345225	      5.66964952	    -19.40851992	     -9.21328021	    -11.41818535	      1.81076578	     -3.40918395
      1.70650000	      1.03743916	      4.31781077	     -3.24618243	      1.44216643	      1.01660069	      0.27846612	     15.21765852	     -7.74523178	     -1.89025168	    -62.57209887	      2.95507979	    -10.22805854	     -0.53524297	      1.72112601	      9.90946670	     11.84273522	    -10.50904894	      5.69520015	    -19.30890646	     -9.19872268	    -11.41464005	      2.14234578	     -3.54094209
      1.71066667	      1.08760604	      4.14170801	     -3.07957459	      1.44697520	      1.01722829	      0.27804914	     15.61278520	     -7.53436387	     -2.04343194	    -61.89643128	      3.58719595	    -10.04730322	     -3.15109415	      1.06996709	      9.70801197	     12.14018027	     -9.93338668	      5.52700041	    -19.47113886	     -8.71273034	    -11.46877647	      2.42163947	     -3.93694591
      1.71483333	      1.11501713	      3.93295375	     -2.88444829	      1.45177541	      1.01777720	      0.27763831	     16.01023877	     -7.28443459	     -2.22206877	    -61.17054742	      4.09711084	    -10.00911028	     -3.17149826	      0.50362404	      9.46178614	     12.31816361	     -9.49770914	      5.64184430	    -19.30824358	     -8.70485143	    -11.50402788	      2.73105572	     -4.28319212
